<?xml version="1.0" encoding="UTF-8"?>
<svg id="Layer_2" data-name="Layer 2" xmlns="http://www.w3.org/2000/svg" xmlns:xlink="http://www.w3.org/1999/xlink" viewBox="0 0 313.33 84.38">
  <defs>
    <style>
      .cls-1 {
        fill: url(#linear-gradient-2);
      }

      .cls-2 {
        fill: #7ee573;
      }

      .cls-3 {
        fill: #41a63a;
      }

      .cls-4 {
        fill: url(#linear-gradient);
      }

      .cls-5 {
        fill: url(#linear-gradient-3);
        filter: url(#drop-shadow-1);
      }
    </style>
    <linearGradient id="linear-gradient" x1="285.02" y1="-243.2" x2="328.07" y2="-246.44" gradientTransform="translate(-96.37 118.22) rotate(29.19)" gradientUnits="userSpaceOnUse">
      <stop offset="0" stop-color="#1e7207"/>
      <stop offset=".82" stop-color="#41a63a"/>
    </linearGradient>
    <linearGradient id="linear-gradient-2" x1="236.24" y1="-242.35" x2="286.54" y2="-242.35" gradientTransform="translate(-96.7 122.54) rotate(28.55)" gradientUnits="userSpaceOnUse">
      <stop offset="0" stop-color="#1e7207"/>
      <stop offset=".8" stop-color="#40a438"/>
      <stop offset=".88" stop-color="#41a63a"/>
    </linearGradient>
    <linearGradient id="linear-gradient-3" x1="251.5" y1="51.22" x2="285.53" y2="17.18" gradientUnits="userSpaceOnUse">
      <stop offset="0" stop-color="#b79ccf"/>
      <stop offset="1" stop-color="#9169ba"/>
    </linearGradient>
    <filter id="drop-shadow-1" x="220.39" y="0" width="78" height="77" filterUnits="userSpaceOnUse">
      <feOffset dx="-7" dy="4"/>
      <feGaussianBlur result="blur" stdDeviation="5"/>
      <feFlood flood-color="#000" flood-opacity=".34"/>
      <feComposite in2="blur" operator="in"/>
      <feComposite in="SourceGraphic"/>
    </filter>
  </defs>
  <g id="Layer_1-2" data-name="Layer 1">
    <g>
      <g>
        <g>
          <path class="cls-4" d="M264.68,73.64c1.35-5.49,3.22-17.1,6.6-21.64,1.5-2.01,3.16-3.44,3.67-5.36.49-1.85.31-2.88-.31-5.64-1.2-5.3,4.35-15.73,6.34-20.78s8.09-8.77,12.44-4.12c10.46,11.19,27.77,26.02,15.02,38.69,4.27,24.95-19.03,26.59-35.92,29.23-6.11.96-9.14-5.06-7.83-10.38Z"/>
          <path class="cls-2" d="M264.65,73.64c1.8-7.19,2.49-14.94,6.34-21.43,1.34-2.04,3.52-3.67,3.93-6.18.41-1.83-.23-3.65-.57-5.47-.41-5.7,2.46-11,4.52-16.14.95-1.98,1.89-5.02,3.19-6.81,2.6-3.89,8.15-5.7,11.62-1.75,0,0,1.29,1.35,1.29,1.35,6.72,7.2,14.91,14.08,17.83,23.86,1.5,4.99-.37,10.48-4.14,13.95,0,0,.09-.29.09-.29,1.71,9.06-.69,18.13-9.27,22.69-7.7,4.24-16.64,5.12-25.17,6.42-7.04,1.87-11.14-3.59-9.66-10.21h0ZM264.7,73.65c-1.42,6.53,2.6,11.97,9.59,10.07,8.51-1.34,17.41-2.26,25.06-6.51,8.46-4.55,10.76-13.46,9.03-22.41,1.71-1.77,3.25-3.86,3.97-6.26,2.19-7.51-2.98-14.58-7.5-20.1-3.2-3.82-6.73-7.33-10.17-10.93-.88-.88-1.65-1.89-2.7-2.55-4.68-3.01-9.96,1.66-11.33,6.17-1.42,3.34-3.12,6.93-4.35,10.33-1,2.9-2.07,5.97-1.72,9.08.33,1.82.96,3.68.53,5.54-.43,2.55-2.64,4.19-4,6.23-3.86,6.44-4.59,14.19-6.42,21.35h0Z"/>
        </g>
        <g>
          <path class="cls-1" d="M274.62,13.27c-1.12,5.98-1.67,20.25-6.91,23.34-2.74,1.62-3.83,2.92-4.36,5s-.8,3.9.84,6.87c2.84,5.11-4.39,17.02-6.64,22.42s-8.62,9.51-13.35,4.55c-11.36-11.95-30.12-27.75-16.5-41.5-4.82-26.81,20.25-28.78,38.4-31.77,6.57-1.08,9.61,5.31,8.52,11.1Z"/>
          <path class="cls-2" d="M274.64,13.27c-1.13,6.64-1.23,13.63-3.99,19.89-.59,1.22-1.34,2.42-2.45,3.26-1.15.75-2.32,1.43-3.22,2.42-1.73,1.95-2.26,5.01-1.52,7.49.37,1.32,1.31,2.41,1.49,3.8.49,5.52-2.46,10.64-4.62,15.52-1.09,2.08-2.38,5.38-3.54,7.36-3.38,5.36-9.55,7.14-13.87,1.62-7.36-7.79-16.35-15.15-19.72-25.72-1.74-5.39.19-11.4,4.27-15.2,0,0-.09.29-.09.29-1.91-9.76.54-19.43,9.73-24.46,8.23-4.64,17.83-5.67,26.98-7.15,7.7-2.09,11.76,3.69,10.55,10.89h0ZM274.59,13.26c1.15-7.11-2.79-12.86-10.48-10.75-9.13,1.52-18.7,2.58-26.88,7.24-9.07,5.02-11.42,14.53-9.49,24.18-3.94,3.78-5.86,9.55-4.12,14.86,3.42,10.44,12.31,17.76,19.59,25.55,4.12,5.32,9.96,3.67,13.28-1.52,1.16-1.99,2.45-5.22,3.55-7.31,2.16-4.83,5.11-9.9,4.67-15.35-.17-1.36-1.12-2.44-1.46-3.77-.74-2.56-.2-5.66,1.6-7.67.93-1.01,2.13-1.69,3.26-2.42,1.08-.82,1.83-1.99,2.42-3.2,2.78-6.23,2.91-13.2,4.07-19.84h0Z"/>
        </g>
      </g>
      <path class="cls-5" d="M268.6,16.73c-4.22.15-7.86-8.18-14.86-3.79-6.43,4.04-.82,10.27-3.14,14.08-2.22,3.64-7.96,2.48-7.99,8.65-.04,7.39,10.1,6.26,11.66,9.76,1.02,2.29-1.33,9.67,3.6,11.59,6.75,2.62,11.36-4.17,14.21-5.55,3.49-1.68,11.17,5.33,16.24-.77,5.6-6.74-3.9-13.3-4.45-17.25-.77-5.53,8.53-9.95.93-16.98-4.39-4.06-12.82.15-16.2.27Z"/>
      <path d="M7.5,82.67c-2.11,0-3.88-.73-5.33-2.19-1.45-1.46-2.17-3.24-2.17-5.35s.72-3.84,2.17-5.28c1.45-1.45,3.22-2.17,5.33-2.17s3.9.72,5.37,2.17c1.48,1.44,2.21,3.19,2.21,5.24s-.73,3.94-2.19,5.4c-1.46,1.46-3.26,2.19-5.4,2.19Z"/>
      <path class="cls-3" d="M55.68,83.48c-9.91,0-18.06-3.18-24.45-9.53-6.4-6.35-9.6-14.51-9.6-24.48s3.22-18.04,9.66-24.32,14.56-9.42,24.34-9.42c3.22,0,6.28.41,9.17,1.24,2.89.83,5.52,1.96,7.88,3.41,2.36,1.45,4.02,2.79,4.97,4.04.95,1.25,1.38,2.54,1.29,3.88-.09,1.34-.61,2.48-1.56,3.43-.95.95-2.02,1.45-3.21,1.51-1.19.06-2.3-.26-3.34-.97-1.04-.71-2.31-1.5-3.82-2.37-1.51-.87-3.18-1.58-5.04-2.12-1.85-.54-3.92-.81-6.21-.81-6.47,0-11.83,2.03-16.05,6.1-4.23,4.06-6.35,9.53-6.35,16.39s2.1,12.37,6.3,16.53c4.2,4.15,9.55,6.23,16.06,6.23,2.38,0,4.58-.34,6.59-1.02,2.02-.68,3.91-1.57,5.67-2.69,1.76-1.11,3.13-2.02,4.11-2.71.98-.69,2.1-.99,3.36-.88,1.26.11,2.34.62,3.23,1.54.89.92,1.4,2.09,1.54,3.5.14,1.42-.32,2.83-1.35,4.25-1.04,1.42-2.83,2.88-5.37,4.38-2.54,1.51-5.3,2.69-8.26,3.57-2.97.87-6.15,1.31-9.55,1.31ZM95.2,82.58c-1.6,0-2.97-.57-4.11-1.72-1.14-1.14-1.72-2.51-1.72-4.11V22.42c0-1.6.56-2.96,1.69-4.09,1.13-1.13,2.49-1.69,4.09-1.69s2.87.56,4,1.69c1.13,1.13,1.69,2.49,1.69,4.09v20.1h.32c1.32-2.5,3.35-4.52,6.07-6.05,2.72-1.54,5.73-2.3,9.01-2.3,5.24,0,9.36,1.59,12.37,4.76,3.01,3.18,4.52,7.44,4.52,12.8v25.02c0,1.6-.56,2.97-1.69,4.11-1.13,1.14-2.49,1.72-4.09,1.72s-2.92-.57-4.06-1.72c-1.14-1.14-1.72-2.51-1.72-4.11v-22.54c0-3.34-.83-5.92-2.48-7.75-1.66-1.82-4-2.73-7.05-2.73s-5.72,1.24-7.86,3.7c-2.14,2.47-3.21,5.36-3.21,8.67v20.64c0,1.6-.57,2.97-1.72,4.11-1.14,1.14-2.5,1.72-4.06,1.72ZM148.99,27.48c-1.9,0-3.53-.67-4.9-2.01-1.37-1.34-2.05-2.96-2.05-4.85s.68-3.53,2.05-4.81c1.37-1.28,3-1.92,4.9-1.92s3.59.64,4.9,1.92c1.31,1.28,1.96,2.88,1.96,4.81s-.65,3.52-1.94,4.85c-1.29,1.34-2.94,2.01-4.92,2.01ZM148.99,82.58c-1.57,0-2.92-.58-4.06-1.74-1.14-1.16-1.72-2.55-1.72-4.18v-35.72c0-1.63.57-3.02,1.72-4.18,1.14-1.16,2.5-1.74,4.06-1.74s2.96.58,4.09,1.74c1.13,1.16,1.69,2.55,1.69,4.18v35.72c0,1.63-.56,3.02-1.69,4.18-1.13,1.16-2.49,1.74-4.09,1.74ZM179.56,83.48c-5.12,0-9.24-1.39-12.37-4.18-3.13-2.78-4.7-6.46-4.7-11.04s1.83-8.52,5.49-11.29c3.66-2.77,8.47-4.15,14.43-4.15,2.5,0,4.88.26,7.16.77,2.27.51,4.16,1.16,5.67,1.94v-2.85c0-2.98-1.02-5.34-3.07-7.09s-4.83-2.62-8.35-2.62c-1.57,0-3.07.19-4.52.56-1.45.38-2.82.95-4.11,1.72-1.29.77-2.33,1.46-3.09,2.08-.77.62-1.7.87-2.8.77-1.1-.11-2.07-.56-2.91-1.38-.84-.81-1.23-1.86-1.17-3.14.06-1.28.62-2.39,1.67-3.34,1.05-.95,2.52-1.93,4.4-2.96,1.88-1.02,3.98-1.8,6.3-2.33,2.32-.53,4.7-.79,7.14-.79,6.86,0,12.19,1.62,15.99,4.85,3.79,3.24,5.69,7.84,5.69,13.8v23.94c0,1.69-.56,3.08-1.69,4.18-1.13,1.1-2.42,1.65-3.86,1.65s-2.74-.44-3.79-1.31c-1.05-.87-1.63-1.88-1.72-3.03v-2.39h-.32c-1.44,2.23-3.53,4.06-6.25,5.49-2.73,1.43-5.79,2.15-9.19,2.15ZM182.58,75.31c3.58,0,6.57-1.2,8.96-3.61,2.39-2.41,3.62-5.54,3.68-9.39v-.36c-1.35-.81-2.94-1.44-4.76-1.87-1.82-.44-3.77-.65-5.85-.65-3.37,0-6.07.67-8.11,2.01-2.03,1.34-3.05,3.41-3.05,6.21,0,2.41.84,4.29,2.51,5.65s3.88,2.03,6.62,2.03Z"/>
    </g>
  </g>
</svg>