<?xml version="1.0" encoding="UTF-8"?>
<svg id="Layer_2" data-name="Layer 2" xmlns="http://www.w3.org/2000/svg" xmlns:xlink="http://www.w3.org/1999/xlink" viewBox="0 0 92.93 84.38">
  <defs>
    <style>
      .cls-1 {
        fill: url(#linear-gradient-2);
      }

      .cls-2 {
        fill: #7ee573;
      }

      .cls-3 {
        fill: url(#linear-gradient);
      }

      .cls-4 {
        fill: url(#linear-gradient-3);
        filter: url(#drop-shadow-1);
      }
    </style>
    <linearGradient id="linear-gradient" x1="64.63" y1="-243.2" x2="107.68" y2="-246.44" gradientTransform="translate(-124.37 225.72) rotate(29.19)" gradientUnits="userSpaceOnUse">
      <stop offset="0" stop-color="#1e7207"/>
      <stop offset=".82" stop-color="#41a63a"/>
    </linearGradient>
    <linearGradient id="linear-gradient-2" x1="15.84" y1="-242.35" x2="66.15" y2="-242.35" gradientTransform="translate(-123.51 227.89) rotate(28.55)" gradientUnits="userSpaceOnUse">
      <stop offset="0" stop-color="#1e7207"/>
      <stop offset=".8" stop-color="#40a438"/>
      <stop offset=".88" stop-color="#41a63a"/>
    </linearGradient>
    <linearGradient id="linear-gradient-3" x1="31.1" y1="51.22" x2="65.14" y2="17.18" gradientUnits="userSpaceOnUse">
      <stop offset="0" stop-color="#b79ccf"/>
      <stop offset="1" stop-color="#9169ba"/>
    </linearGradient>
    <filter id="drop-shadow-1" x="0" y="0" width="78" height="77" filterUnits="userSpaceOnUse">
      <feOffset dx="-7" dy="4"/>
      <feGaussianBlur result="blur" stdDeviation="5"/>
      <feFlood flood-color="#000" flood-opacity=".34"/>
      <feComposite in2="blur" operator="in"/>
      <feComposite in="SourceGraphic"/>
    </filter>
  </defs>
  <g id="Layer_1-2" data-name="Layer 1">
    <g>
      <g>
        <g>
          <path class="cls-3" d="M44.28,73.64c1.35-5.49,3.22-17.1,6.6-21.64,1.5-2.01,3.16-3.44,3.67-5.36.49-1.85.31-2.88-.31-5.64-1.2-5.3,4.35-15.73,6.34-20.78s8.09-8.77,12.44-4.12c10.46,11.19,27.77,26.02,15.02,38.69,4.27,24.95-19.03,26.59-35.92,29.23-6.11.96-9.14-5.06-7.83-10.38Z"/>
          <path class="cls-2" d="M44.26,73.64c1.8-7.19,2.49-14.94,6.34-21.43,1.34-2.04,3.52-3.67,3.93-6.18.41-1.83-.23-3.65-.57-5.47-.41-5.7,2.46-11,4.52-16.14.95-1.98,1.89-5.02,3.19-6.81,2.6-3.89,8.15-5.7,11.62-1.75,0,0,1.29,1.35,1.29,1.35,6.72,7.2,14.91,14.08,17.83,23.86,1.5,4.99-.37,10.48-4.14,13.95,0,0,.09-.29.09-.29,1.71,9.06-.69,18.13-9.27,22.69-7.7,4.24-16.64,5.12-25.17,6.42-7.04,1.87-11.14-3.59-9.66-10.21h0ZM44.31,73.65c-1.42,6.53,2.6,11.97,9.59,10.07,8.51-1.34,17.41-2.26,25.06-6.51,8.46-4.55,10.76-13.46,9.03-22.41,1.71-1.77,3.25-3.86,3.97-6.26,2.19-7.51-2.98-14.58-7.5-20.1-3.2-3.82-6.73-7.33-10.17-10.93-.88-.88-1.65-1.89-2.7-2.55-4.68-3.01-9.96,1.66-11.33,6.17-1.42,3.34-3.12,6.93-4.35,10.33-1,2.9-2.07,5.97-1.72,9.08.33,1.82.96,3.68.53,5.54-.43,2.55-2.64,4.19-4,6.23-3.86,6.44-4.59,14.19-6.42,21.35h0Z"/>
        </g>
        <g>
          <path class="cls-1" d="M54.22,13.27c-1.12,5.98-1.67,20.25-6.91,23.34-2.74,1.62-3.83,2.92-4.36,5s-.8,3.9.84,6.87c2.84,5.11-4.39,17.02-6.64,22.42s-8.62,9.51-13.35,4.55C12.45,63.49-6.31,47.69,7.3,33.94,2.48,7.13,27.55,5.16,45.7,2.17c6.57-1.08,9.61,5.31,8.52,11.1Z"/>
          <path class="cls-2" d="M54.25,13.27c-1.13,6.64-1.23,13.63-3.99,19.89-.59,1.22-1.34,2.42-2.45,3.26-1.15.75-2.32,1.43-3.22,2.42-1.73,1.95-2.26,5.01-1.52,7.49.37,1.32,1.31,2.41,1.49,3.8.49,5.52-2.46,10.64-4.62,15.52-1.09,2.08-2.38,5.38-3.54,7.36-3.38,5.36-9.55,7.14-13.87,1.62-7.36-7.79-16.35-15.15-19.72-25.72-1.74-5.39.19-11.4,4.27-15.2,0,0-.09.29-.09.29-1.91-9.76.54-19.43,9.73-24.46,8.23-4.64,17.83-5.67,26.98-7.15,7.7-2.09,11.76,3.69,10.55,10.89h0ZM54.2,13.26c1.15-7.11-2.79-12.86-10.48-10.75-9.13,1.52-18.7,2.58-26.88,7.24-9.07,5.02-11.42,14.53-9.49,24.18-3.94,3.78-5.86,9.55-4.12,14.86,3.42,10.44,12.31,17.76,19.59,25.55,4.12,5.32,9.96,3.67,13.28-1.52,1.16-1.99,2.45-5.22,3.55-7.31,2.16-4.83,5.11-9.9,4.67-15.35-.17-1.36-1.12-2.44-1.46-3.77-.74-2.56-.2-5.66,1.6-7.67.93-1.01,2.13-1.69,3.26-2.42,1.08-.82,1.83-1.99,2.42-3.2,2.78-6.23,2.91-13.2,4.07-19.84h0Z"/>
        </g>
      </g>
      <path class="cls-4" d="M48.2,16.73c-4.22.15-7.86-8.18-14.86-3.79-6.43,4.04-.82,10.27-3.14,14.08-2.22,3.64-7.96,2.48-7.99,8.65-.04,7.39,10.1,6.26,11.66,9.76,1.02,2.29-1.33,9.67,3.6,11.59,6.75,2.62,11.36-4.17,14.21-5.55,3.49-1.68,11.17,5.33,16.24-.77,5.6-6.74-3.9-13.3-4.45-17.25-.77-5.53,8.53-9.95.93-16.98-4.39-4.06-12.82.15-16.2.27Z"/>
    </g>
  </g>
</svg>